<svg width="16" height="16" viewBox="0 0 16 16" fill="none" xmlns="http://www.w3.org/2000/svg">
<g clip-path="url(#clip0_19_228)">
<rect width="16" height="16" rx="1.33333" fill="#5361F5"/>
<rect width="16" height="16" rx="1.33333" fill="#5361F5"/>
<path d="M13.333 6.93335L13.333 5.89333C13.333 4.11125 11.8883 2.66659 10.1063 2.66659L8.97745 2.66659L8.44411 10.1334L13.333 6.93335Z" fill="white"/>
<path d="M13.333 13.3335L11.3775 13.3335C9.75744 13.3335 8.44411 12.0202 8.44411 10.4001L8.44411 10.1334L13.333 10.1334L13.333 13.3335Z" fill="white"/>
<path d="M2.6665 9.06665L2.6665 10.1067C2.6665 11.8887 4.11117 13.3334 5.89325 13.3334L7.02206 13.3334L7.5554 5.86658L2.6665 9.06665Z" fill="white"/>
<path d="M2.6665 2.6665L4.622 2.6665C6.24207 2.6665 7.5554 3.97983 7.5554 5.59991L7.5554 5.86658L2.6665 5.86658L2.6665 2.6665Z" fill="white"/>
</g>
<defs>
<clipPath id="clip0_19_228">
<rect width="16" height="16" rx="1.33333" fill="white"/>
</clipPath>
</defs>
</svg>
