<svg width="125" height="37" viewBox="0 0 125 37" fill="none" xmlns="http://www.w3.org/2000/svg">
<path d="M54.2483 14.5V12.844H56.6063V6.39999H54.2483V4.77999H58.5683V6.39999C58.8743 5.60799 59.6483 4.63599 61.2683 4.63599H62.7983V6.36399H61.3403C59.5763 6.36399 58.5863 7.51599 58.5863 9.06399V12.844H62.3663V14.5H54.2483Z" fill="black"/>
<path d="M49.7907 14.5V13.078C49.1607 14.212 48.1527 14.68 46.8207 14.68C44.8047 14.68 43.6167 13.51 43.6167 11.26V4.78003H45.5967V11.062C45.5967 12.142 46.1007 13.006 47.5227 13.006C49.1067 13.006 49.7907 11.818 49.7907 10.324V4.78003H51.7707V14.5H49.7907Z" fill="black"/>
<path d="M33.093 14.5V1H35.073V6.166C35.703 5.05 36.711 4.6 38.025 4.6C40.041 4.6 41.229 5.77 41.229 8.02V14.5H39.249V8.218C39.249 7.138 38.745 6.274 37.323 6.274C35.883 6.274 35.199 7.246 35.073 8.542V14.5H33.093Z" fill="black"/>
<path d="M27.5553 14.5C25.6473 14.5 24.9993 13.654 24.9993 11.926V6.32802H22.1733V4.78003H24.9993V1.90002H26.9793V4.78003H30.7053V6.32802H26.9793V11.656C26.9793 12.43 27.1773 12.844 28.2213 12.844H30.7053V14.5H27.5553Z" fill="black"/>
<path d="M11.7937 14.5V12.844H14.1517V6.39999H11.7937V4.77999H16.1137V6.39999C16.4197 5.60799 17.1937 4.63599 18.8137 4.63599H20.3437V6.36399H18.8857C17.1217 6.36399 16.1317 7.51599 16.1317 9.06399V12.844H19.9117V14.5H11.7937Z" fill="black"/>
<path d="M4.24 14.68C2.206 14.68 1 13.654 1 11.908C1 10.234 2.08 9.11798 3.952 8.93798L7.336 8.59598V7.98398C7.336 6.70598 6.706 6.14798 5.302 6.14798C3.988 6.14798 3.358 6.63398 3.286 7.89398H1.342C1.378 5.78798 2.71 4.59998 5.302 4.59998C7.858 4.59998 9.28 5.71598 9.28 7.71398V14.5H7.426V13.06C6.814 14.086 5.716 14.68 4.24 14.68ZM2.962 11.728C2.962 12.664 3.61 13.132 4.798 13.132C6.436 13.132 7.336 12.196 7.336 10.63V9.92798L4.672 10.234C3.484 10.378 2.962 10.954 2.962 11.728Z" fill="black"/>
<path d="M117.944 9.27474L117.959 9.22971C118.446 7.81831 119.09 6.77144 119.752 6.07653C120.412 5.38296 121.094 5.035 121.655 5.035C121.905 5.035 122.113 5.09522 122.276 5.20872C122.439 5.3223 122.554 5.48668 122.623 5.68863C122.761 6.0905 122.72 6.64428 122.519 7.26625L117.944 9.27474ZM117.944 9.27474L117.988 9.29242L118.083 9.33042L118.128 9.34855L118.148 9.3037C118.574 8.30976 119.032 7.58783 119.445 7.11531C119.652 6.87901 119.847 6.70604 120.021 6.5925C120.195 6.47841 120.343 6.427 120.458 6.427C120.538 6.427 120.588 6.45604 120.621 6.50372C120.657 6.55466 120.676 6.63281 120.678 6.73672C120.683 6.94407 120.619 7.22718 120.524 7.52065L120.524 7.52069L118.795 12.8974C118.795 12.8975 118.795 12.8975 118.795 12.8976C118.603 13.4824 118.567 14.0264 118.705 14.4279C118.774 14.6294 118.888 14.796 119.048 14.912C119.209 15.0281 119.413 15.091 119.66 15.091C120.23 15.091 120.917 14.7333 121.579 14.0327C122.243 13.3307 122.887 12.2792 123.374 10.8774L123.389 10.8323L123.345 10.8146L123.25 10.7766L123.205 10.7585L123.186 10.8031C122.76 11.7876 122.301 12.5097 121.888 12.9847C121.681 13.2222 121.486 13.397 121.312 13.512C121.138 13.6276 120.99 13.68 120.876 13.68C120.795 13.68 120.745 13.6509 120.712 13.6035C120.677 13.5528 120.657 13.4753 120.655 13.3726C120.65 13.1678 120.714 12.8895 120.809 12.6058L120.809 12.6053L122.519 7.26637L117.944 9.27474ZM121.301 2.17112L121.301 2.17112L121.301 2.17333C121.271 2.49087 121.37 2.77137 121.561 2.97244C121.752 3.17333 122.032 3.292 122.358 3.292C123.061 3.292 123.753 2.78418 123.813 2.06919C123.853 1.75171 123.758 1.47104 123.57 1.2698C123.381 1.06863 123.101 0.95 122.776 0.95C122.07 0.95 121.4 1.45922 121.301 2.17112Z" fill="black" stroke="black" stroke-width="0.1"/>
<path d="M108.146 13.389L108.146 13.4017L108.152 13.4128C108.387 13.8235 108.876 14.2425 109.525 14.5587C110.175 14.8753 110.99 15.091 111.882 15.091C112.935 15.091 113.91 14.7989 114.623 14.2884C115.337 13.7774 115.789 13.0461 115.789 12.172C115.789 11.5012 115.516 10.9673 115.111 10.5127C114.707 10.0594 114.17 9.68279 113.639 9.32558C113.581 9.28668 113.523 9.24801 113.465 9.2095C112.992 8.89294 112.535 8.58717 112.182 8.24835C111.788 7.86933 111.533 7.45518 111.533 6.94696C111.533 6.50514 111.707 6.13918 112.007 5.88296C112.307 5.62617 112.737 5.47696 113.25 5.47696C114.617 5.47696 115.478 6.7527 115.366 8.15897L115.362 8.21296H115.416H115.511H115.522L115.531 8.20848C116.179 7.91403 116.624 7.17257 116.663 6.32223L116.664 6.30382L116.652 6.28926C116.109 5.5906 115.029 5.03496 113.573 5.03496C111.564 5.03496 109.951 6.18529 109.951 7.83996C109.951 9.17203 111.018 9.92702 112.053 10.6246C112.087 10.6475 112.121 10.6704 112.155 10.6933C112.642 11.0203 113.115 11.3386 113.476 11.7039C113.86 12.0932 114.112 12.5314 114.112 13.084C114.112 13.5994 113.887 13.9884 113.531 14.2502C113.174 14.5131 112.682 14.649 112.148 14.649C110.459 14.649 109.445 13.0334 109.67 11.3426L109.677 11.2961L109.631 11.2869L109.536 11.2679L109.523 11.2654L109.511 11.2693C108.706 11.5243 108.126 12.4595 108.146 13.389Z" fill="black" stroke="black" stroke-width="0.1"/>
<path d="M99.5191 12.3817H99.5191V12.381C99.5191 10.8814 100.086 9.13265 100.902 7.75869C101.309 7.072 101.778 6.48118 102.267 6.06264C102.757 5.64358 103.262 5.40104 103.744 5.40104C104.259 5.40104 104.637 5.62477 104.889 6.02376C105.143 6.42571 105.271 7.0086 105.271 7.72588C105.262 9.23513 104.69 10.9839 103.875 12.3555C103.467 13.041 102.999 13.6301 102.513 14.0471C102.025 14.4647 101.523 14.706 101.046 14.706C100.531 14.706 100.148 14.4822 99.8937 14.0831C99.6373 13.6813 99.5097 13.0986 99.5191 12.3817ZM97.6521 11.431C97.6521 12.5911 98.0119 13.5074 98.6455 14.1337C99.279 14.7599 100.181 15.091 101.255 15.091C102.888 15.091 104.359 14.2701 105.42 13.06C106.482 11.8501 107.138 10.2474 107.138 8.67604C107.138 7.51584 106.774 6.59955 106.138 5.97329C105.502 5.34719 104.6 5.01604 103.535 5.01604C101.903 5.01604 100.432 5.83698 99.3698 7.04706C98.3081 8.25698 97.6521 9.8597 97.6521 11.431Z" fill="black" stroke="black" stroke-width="0.1"/>
<path d="M87.7654 13.389L87.7657 13.4017L87.772 13.4128C88.0067 13.8235 88.4959 14.2425 89.1449 14.5587C89.795 14.8753 90.61 15.091 91.5014 15.091C92.5551 15.091 93.5299 14.7989 94.2428 14.2884C94.9562 13.7774 95.4084 13.0461 95.4084 12.172C95.4084 11.5012 95.1356 10.9673 94.7307 10.5127C94.327 10.0594 93.7899 9.68279 93.2583 9.32558C93.2004 9.28668 93.1426 9.24801 93.085 9.2095C92.6115 8.89294 92.1543 8.58717 91.8021 8.24835C91.4081 7.86933 91.1524 7.45518 91.1524 6.94696C91.1524 6.50514 91.3268 6.13918 91.6265 5.88296C91.9269 5.62617 92.3564 5.47696 92.8694 5.47696C94.2368 5.47696 95.0981 6.7527 94.9856 8.15897L94.9812 8.21296H95.0354H95.1304H95.1412L95.1511 8.20848C95.7989 7.91403 96.2437 7.17257 96.2824 6.32223L96.2832 6.30382L96.2719 6.28926C95.7285 5.5906 94.6484 5.03496 93.1924 5.03496C91.1836 5.03496 89.5704 6.18529 89.5704 7.83996C89.5704 9.17203 90.6373 9.92702 91.673 10.6246C91.7071 10.6475 91.7411 10.6704 91.7751 10.6933C92.2615 11.0203 92.7351 11.3386 93.0957 11.7039C93.48 12.0932 93.7314 12.5314 93.7314 13.084C93.7314 13.5994 93.5068 13.9884 93.1509 14.2502C92.7935 14.5131 92.3012 14.649 91.7674 14.649C90.0786 14.649 89.0645 13.0334 89.29 11.3426L89.2962 11.2961L89.2502 11.2869L89.1552 11.2679L89.1426 11.2654L89.1303 11.2693C88.326 11.5243 87.746 12.4595 87.7654 13.389Z" fill="black" stroke="black" stroke-width="0.1"/>
<path d="M78.6364 14.78L78.5639 14.863H78.6741H80.7451H80.7796L80.7918 14.8307C81.4934 12.982 82.5222 11.0478 83.5717 9.57662C84.0965 8.84094 84.6253 8.22262 85.1198 7.78878C85.6164 7.35314 86.07 7.11096 86.4451 7.11096C86.7357 7.11096 87.1106 7.25615 87.2531 7.64805L87.2651 7.68096H87.3001H87.3951H87.4129L87.4267 7.66966C87.749 7.40595 88.0432 6.94614 88.2093 6.48167C88.2925 6.24893 88.3444 6.01269 88.3508 5.79687C88.3572 5.58148 88.3184 5.38235 88.2157 5.22823L88.209 5.21814L88.1984 5.21225C88.0194 5.11285 87.783 5.05396 87.5661 5.05396C87.0552 5.05396 86.518 5.31876 85.9762 5.76049C85.4335 6.20292 84.8803 6.82758 84.3363 7.55836C83.3685 8.85869 82.4259 10.5007 81.6207 12.0654L83.1866 7.26647L83.1867 7.26631C83.3779 6.67361 83.4383 6.12041 83.3152 5.71179C83.2533 5.50631 83.1445 5.33595 82.9815 5.21731C82.8185 5.09875 82.6057 5.03496 82.3411 5.03496C81.7802 5.03496 81.0982 5.38292 80.4381 6.07649C79.7767 6.7714 79.1322 7.81827 78.6458 9.22967L78.6303 9.2747L78.6745 9.29239L78.7695 9.33039L78.8148 9.34851L78.834 9.30366C79.26 8.30972 79.7182 7.58779 80.1319 7.11527C80.3388 6.87897 80.5338 6.706 80.7072 6.59246C80.8813 6.47837 81.0296 6.42696 81.1441 6.42696C81.232 6.42696 81.2839 6.4613 81.3165 6.51664C81.3517 6.57629 81.3671 6.66547 81.3648 6.77731C81.3602 6.99989 81.2863 7.28369 81.2105 7.52064C81.2105 7.52067 81.2105 7.52069 81.2105 7.52072L79.3675 13.2396L79.3675 13.2396L79.3672 13.2406C79.2824 13.5233 79.1645 13.8345 79.0349 14.1126C78.9048 14.3916 78.7647 14.6334 78.6364 14.78Z" fill="black" stroke="black" stroke-width="0.1"/>
<path d="M76.9299 10.7385L76.8865 10.7212L76.8663 10.7633C75.9035 12.7644 74.3607 13.718 72.9403 13.718C72.182 13.718 71.6173 13.475 71.2416 13.0531C70.865 12.6303 70.6723 12.0214 70.6723 11.279C70.6723 11.0098 70.6894 10.7418 70.7395 10.4745C72.4905 10.495 74.1406 10.0148 75.3573 9.30096C76.58 8.58353 77.3793 7.62049 77.3793 6.68096C77.3793 6.21744 77.1666 5.8036 76.7503 5.50735C76.3355 5.21208 75.721 5.03496 74.9163 5.03496C73.2451 5.03496 71.7028 5.92794 70.5798 7.22054C69.4569 8.51312 68.7483 10.2107 68.7483 11.83C68.7483 12.8665 69.0701 13.6831 69.6348 14.2405C70.1994 14.7979 71.0016 15.091 71.9523 15.091C74.3763 15.091 76.1376 13.2249 77.053 10.8409L77.0707 10.7949L77.0249 10.7765L76.9299 10.7385ZM75.6453 6.28196C75.6453 7.01218 75.1249 7.95915 74.2444 8.73584C73.379 9.49918 72.1736 10.0905 70.7976 10.1439C71.0317 8.9844 71.5956 7.80648 72.305 6.91395C73.0287 6.00335 73.8946 5.40096 74.7073 5.40096C75.0777 5.40096 75.3091 5.50712 75.449 5.66443C75.5898 5.82285 75.6453 6.04169 75.6453 6.28196Z" fill="black" stroke="black" stroke-width="0.1"/>
<path d="M115.681 35.1051V25.1733H120.581C122.25 25.1733 123.203 26.1533 123.203 27.8615C123.203 29.146 122.66 30.0068 121.72 30.179V30.2716C122.74 30.4968 123.19 31.2383 123.19 32.6553C123.19 33.5293 123.269 34.6681 123.349 35.1051H122.091C121.998 34.5489 121.945 33.6882 121.945 32.6288C121.945 31.2913 121.415 30.8543 119.813 30.8543H116.939V35.1051H115.681ZM116.939 29.8611H119.813C121.429 29.8611 121.945 29.4241 121.945 28.0204C121.945 26.6432 121.455 26.1798 120.051 26.1798H116.939V29.8611Z" fill="black"/>
<path d="M106.952 35.1051V25.1733H113.706V26.2327H108.21V29.5566H113.176V30.6292H108.21V34.0457H113.825V35.1051H106.952Z" fill="black"/>
<path d="M98.2224 35.1051V25.1733H104.976V26.2327H99.4804V29.5566H104.446V30.6292H99.4804V34.0457H105.095V35.1051H98.2224Z" fill="black"/>
<path d="M88.4727 35.1051V25.1733H90.1809L94.829 33.5822H94.9349V25.1733H96.1267V35.1051H94.4052L89.7704 26.7227H89.6645V35.1051H88.4727Z" fill="black"/>
<path d="M85.123 35.1051V25.1733H86.3811V35.1051H85.123Z" fill="black"/>
<path d="M78.8525 35.2376C75.9127 35.2376 74.4692 33.5559 74.4692 30.1393C74.4692 26.7493 75.9127 25.041 78.7598 25.041C81.2758 25.041 82.9046 26.3255 83.037 28.4046H81.779C81.6731 26.9479 80.574 26.1136 78.7598 26.1136C76.588 26.1136 75.7273 27.2657 75.7273 30.1393C75.7273 33.0394 76.6013 34.165 78.8525 34.165C80.958 34.165 81.9777 33.1586 82.0174 31.0398H79.0114V29.9937H83.1562V35.1052H82.216V33.5161C81.6731 34.6682 80.5607 35.2376 78.8525 35.2376Z" fill="black"/>
<path d="M64.9485 35.1051V25.1733H66.6567L71.3048 33.5822H71.4108V25.1733H72.6026V35.1051H70.8811L66.2462 26.7227H66.1403V35.1051H64.9485Z" fill="black"/>
<path d="M56.219 35.1051V25.1733H62.9726V26.2327H57.477V29.5566H62.4429V30.6292H57.477V34.0457H63.0918V35.1051H56.219Z" fill="black"/>
<path d="M42.3044 35.1051V25.1733H44.0127L48.6608 33.5822H48.7667V25.1733H49.9585V35.1051H48.237L43.6022 26.7227H43.4963V35.1051H42.3044Z" fill="black"/>
<path d="M36.0356 35.2376C33.0958 35.2376 31.6523 33.5559 31.6523 30.1393C31.6523 26.7493 33.0958 25.041 35.9429 25.041C38.4589 25.041 40.0877 26.3255 40.2202 28.4046H38.9621C38.8562 26.9479 37.7571 26.1136 35.9429 26.1136C33.7711 26.1136 32.9104 27.2657 32.9104 30.1393C32.9104 33.0394 33.7844 34.165 36.0356 34.165C38.1411 34.165 39.1608 33.1586 39.2005 31.0398H36.1945V29.9937H40.3393V35.1052H39.3991V33.5161C38.8562 34.6682 37.7438 35.2376 36.0356 35.2376Z" fill="black"/>
<path d="M28.5317 35.1051V25.1733H29.7898V35.1051H28.5317Z" fill="black"/>
<path d="M22.9059 35.2376C20.3369 35.2376 19.0789 34.1385 19.0921 31.9006H20.3104C20.3369 33.5294 21.0653 34.165 22.9059 34.165C24.6672 34.165 25.4485 33.6088 25.4485 32.3508C25.4485 31.3973 24.985 30.9736 23.6475 30.6955L21.6214 30.2717C20.231 29.9804 19.4364 29.0535 19.4364 27.716C19.4364 26.021 20.6812 25.041 22.853 25.041C25.1439 25.041 26.4152 26.1666 26.3887 28.1397H25.1704C25.1704 26.7625 24.4288 26.1136 22.853 26.1136C21.4096 26.1136 20.6812 26.6301 20.6812 27.6762C20.6812 28.537 21.1844 29.0005 22.3895 29.2521L24.3494 29.6626C25.9384 29.9937 26.6933 30.8544 26.6933 32.2978C26.6933 34.218 25.369 35.2376 22.9059 35.2376Z" fill="black"/>
<path d="M10.9446 35.1051V25.1733H17.6982V26.2327H12.2026V29.5566H17.1685V30.6292H12.2026V34.0457H17.8174V35.1051H10.9446Z" fill="black"/>
<path d="M1 35.1051V25.1733H4.89325C7.71388 25.1733 9.07784 26.7227 9.07784 30.1392C9.07784 33.5558 7.71388 35.1051 4.9065 35.1051H1ZM2.25802 34.0457H4.57544C6.99879 34.0457 7.81981 33.0658 7.81981 30.1392C7.81981 27.2259 6.99879 26.2327 4.61516 26.2327H2.25802V34.0457Z" fill="black"/>
</svg>
