<svg width="24" height="24" viewBox="0 0 24 24" fill="none" xmlns="http://www.w3.org/2000/svg">
    <style>
        .ae_bg { fill: #5361f5; }
        .dark .ae_bg { fill: #a3c2ff; }
        @media (prefers-color-scheme: dark) {
        .ae_bg { fill: #a3c2ff; }
        }

        .ae_fill { fill: white; }
        .dark .ae_fill { fill: black; }
        @media (prefers-color-scheme: dark) {
        .ae_fill { fill: black; }
        }
    </style>
    <rect class="ae_bg" width="24" height="24" rx="2"/>
<path class="ae_fill" d="M21.9995 10L21.9995 8.05001C21.9995 4.70869 19.2908 2.00001 15.9495 2.00001L13.833 2.00001L12.833 16L21.9995 10Z"/>
<path class="ae_fill" d="M21.9995 22L18.333 22C15.2955 22 12.833 19.5375 12.833 16.5L12.833 16L21.9995 16L21.9995 22Z"/>
<path class="ae_fill" d="M2 14L2 15.95C2 19.2913 4.70867 22 8.05 22L10.1665 22L11.1665 8L2 14Z"/>
<path class="ae_fill" d="M2 2L5.66646 2C8.70403 2 11.1665 4.46243 11.1665 7.5L11.1665 8L2 7.99999L2 2Z"/>
</svg>
