<svg width="24" height="16" viewBox="0 0 24 16" fill="currentColor" xmlns="http://www.w3.org/2000/svg">
    <style>
        .ae_favColor { fill: #5361f5; }
        @media (prefers-color-scheme: dark) {
        .ae_favColor { fill: #a3c2ff; }
        }
    </style>
    <path class="ae_favColor"
          d="M19.121 13.3158C15.9662 13.3158 14.3154 11.4921 14.3154 8.13947C14.3154 4.76842 16.0029 3 19.176 3C22.3309 3 24 4.76842 24 7.58684V8.80263H17.1401C17.2501 10.5711 17.8371 11.2895 19.1394 11.2895C20.1848 11.2895 20.8452 10.8474 21.0286 10H23.8716C23.6698 12.0079 21.7806 13.3158 19.121 13.3158ZM17.1768 7.08947H21.212C21.1753 5.67105 20.5333 5.02631 19.1944 5.02631C17.9288 5.02631 17.3418 5.59737 17.1768 7.08947Z"/>
    <path class="ae_favColor"
          d="M3.37492 13.3158C1.28394 13.3158 0 12.2474 0 10.4237C0 8.63684 1.21057 7.55 3.39326 7.32895L6.43802 7.03421V6.38947C6.43802 5.45 5.92445 5.02631 4.82393 5.02631C3.74176 5.02631 3.30155 5.39474 3.1915 6.40789H0.366839C0.403523 4.19737 1.99927 3 4.82393 3C7.68527 3 9.33605 4.19737 9.33605 6.31579V13.1316H6.54807V11.7868C5.88776 12.7816 4.82393 13.3158 3.37492 13.3158ZM2.87968 10.1658C2.87968 10.9026 3.37492 11.2711 4.3287 11.2711C5.72268 11.2711 6.43802 10.5158 6.43802 9.07895V8.71053L4.27367 8.98684C3.33823 9.09737 2.87968 9.50263 2.87968 10.1658Z"/>
    <path class="ae_favColor" d="M11 16V0H13V16H11Z"/>
</svg>
